<svg width="53" height="53" viewBox="0 0 53 53" fill="none" xmlns="http://www.w3.org/2000/svg">
<g filter="url(#filter0_d_404_764)">
<circle cx="26.5" cy="22.5" r="22.5" fill="#F28587"/>
<path d="M17.5303 30.542C16.7393 30.542 16.0186 30.3486 15.3682 29.9619C14.7178 29.5752 14.1992 29.0566 13.8125 28.4062C13.4316 27.7617 13.2412 27.0439 13.2412 26.2529C13.2412 25.4678 13.4316 24.7529 13.8125 24.1084C14.1992 23.458 14.7178 22.9424 15.3682 22.5615C16.0186 22.1748 16.7393 21.9814 17.5303 21.9814C18.3154 21.9814 19.0303 22.1748 19.6748 22.5615C20.3252 22.9424 20.8438 23.458 21.2305 24.1084C21.6172 24.7529 21.8105 25.4678 21.8105 26.2529C21.8105 27.0439 21.6172 27.7617 21.2305 28.4062C20.8438 29.0566 20.3252 29.5752 19.6748 29.9619C19.0303 30.3486 18.3154 30.542 17.5303 30.542ZM17.5303 28.7227C17.9873 28.7227 18.4004 28.6084 18.7695 28.3799C19.1387 28.1572 19.4346 27.8613 19.6572 27.4922C19.8799 27.123 19.9912 26.71 19.9912 26.2529C19.9912 25.8018 19.8799 25.3916 19.6572 25.0225C19.4346 24.6533 19.1387 24.3574 18.7695 24.1348C18.4004 23.9121 17.9873 23.8008 17.5303 23.8008C17.0791 23.8008 16.666 23.9121 16.291 24.1348C15.9219 24.3574 15.626 24.6533 15.4033 25.0225C15.1865 25.3916 15.0781 25.8018 15.0781 26.2529C15.0781 26.71 15.1865 27.123 15.4033 27.4922C15.626 27.8672 15.9219 28.166 16.291 28.3887C16.666 28.6113 17.0791 28.7227 17.5303 28.7227ZM17.5303 27.5625C17.1611 27.5625 16.8477 27.4336 16.5898 27.1758C16.3379 26.9238 16.2148 26.6162 16.2207 26.2529C16.2266 25.8838 16.3555 25.5762 16.6074 25.3301C16.8594 25.0781 17.167 24.9521 17.5303 24.9521C17.8994 24.9521 18.21 25.0811 18.4619 25.3389C18.7139 25.5908 18.8398 25.8955 18.8398 26.2529C18.8398 26.6162 18.7109 26.9238 18.4531 27.1758C18.2012 27.4336 17.8936 27.5625 17.5303 27.5625ZM34.7568 30.542C33.9658 30.542 33.2451 30.3486 32.5947 29.9619C31.9443 29.5752 31.4258 29.0566 31.0391 28.4062C30.6523 27.7617 30.459 27.0439 30.459 26.2529C30.459 25.4678 30.6523 24.7529 31.0391 24.1084C31.4258 23.458 31.9443 22.9424 32.5947 22.5615C33.2451 22.1748 33.9658 21.9814 34.7568 21.9814C35.542 21.9814 36.2568 22.1748 36.9014 22.5615C37.5518 22.9424 38.0674 23.458 38.4482 24.1084C38.835 24.7529 39.0283 25.4678 39.0283 26.2529C39.0283 27.0439 38.835 27.7617 38.4482 28.4062C38.0674 29.0566 37.5518 29.5752 36.9014 29.9619C36.2568 30.3486 35.542 30.542 34.7568 30.542ZM34.7568 28.7227C35.2021 28.7227 35.6094 28.6084 35.9785 28.3799C36.3535 28.1572 36.6494 27.8613 36.8662 27.4922C37.0889 27.123 37.2002 26.71 37.2002 26.2529C37.2002 25.8018 37.0889 25.3916 36.8662 25.0225C36.6494 24.6533 36.3535 24.3574 35.9785 24.1348C35.6094 23.9121 35.2021 23.8008 34.7568 23.8008C34.2998 23.8008 33.8838 23.9121 33.5088 24.1348C33.1396 24.3574 32.8438 24.6533 32.6211 25.0225C32.3984 25.3916 32.2871 25.8018 32.2871 26.2529C32.2871 26.71 32.3984 27.123 32.6211 27.4922C32.8438 27.8672 33.1396 28.166 33.5088 28.3887C33.8838 28.6113 34.2998 28.7227 34.7568 28.7227ZM34.7568 27.5713C34.3818 27.5713 34.0654 27.4424 33.8076 27.1846C33.5557 26.9268 33.4326 26.6162 33.4385 26.2529C33.4385 25.8896 33.5645 25.582 33.8164 25.3301C34.0742 25.0781 34.3877 24.9521 34.7568 24.9521C35.1201 24.9521 35.4277 25.0811 35.6797 25.3389C35.9316 25.5908 36.0576 25.8955 36.0576 26.2529C36.0576 26.6162 35.9287 26.9268 35.6709 27.1846C35.4189 27.4424 35.1143 27.5713 34.7568 27.5713ZM17.6182 27.3076V25.207H27.1367C27.1895 25.207 27.2246 25.1982 27.2422 25.1807C27.2656 25.1631 27.2949 25.1338 27.3301 25.0928L32.3398 19.5645L33.79 21.542L28.7451 26.71C28.6045 26.8506 28.4727 26.9648 28.3496 27.0527C28.2324 27.1406 28.0889 27.2051 27.9189 27.2461C27.749 27.2871 27.5176 27.3076 27.2246 27.3076H17.6182ZM26.627 11.7773C26.627 11.4902 26.7266 11.2471 26.9258 11.0479C27.1309 10.8428 27.3799 10.7402 27.6729 10.7402H30.6436C30.9951 10.7402 31.2852 10.8076 31.5137 10.9424C31.7422 11.0771 31.8945 11.2852 31.9707 11.5664L35.6533 25.7871L33.6494 26.3232L30.3184 12.9375C30.2949 12.8672 30.2393 12.832 30.1514 12.832H27.6729C27.3799 12.832 27.1309 12.7295 26.9258 12.5244C26.7266 12.3193 26.627 12.0703 26.627 11.7773Z" fill="white"/>
<circle cx="26.5" cy="22.5" r="19" stroke="white"/>
</g>
<defs>
<filter id="filter0_d_404_764" x="0" y="0" width="53" height="53" filterUnits="userSpaceOnUse" color-interpolation-filters="sRGB">
<feFlood flood-opacity="0" result="BackgroundImageFix"/>
<feColorMatrix in="SourceAlpha" type="matrix" values="0 0 0 0 0 0 0 0 0 0 0 0 0 0 0 0 0 0 127 0" result="hardAlpha"/>
<feOffset dy="4"/>
<feGaussianBlur stdDeviation="2"/>
<feComposite in2="hardAlpha" operator="out"/>
<feColorMatrix type="matrix" values="0 0 0 0 0 0 0 0 0 0 0 0 0 0 0 0 0 0 0.25 0"/>
<feBlend mode="normal" in2="BackgroundImageFix" result="effect1_dropShadow_404_764"/>
<feBlend mode="normal" in="SourceGraphic" in2="effect1_dropShadow_404_764" result="shape"/>
</filter>
</defs>
</svg>
