<svg width="36" height="36" viewBox="0 0 36 36" fill="none" xmlns="http://www.w3.org/2000/svg">
<path fill-rule="evenodd" clip-rule="evenodd" d="M16.9628 33.3923L16.9695 33.399L16.974 33.4035C17.2693 33.6272 17.6295 33.7483 18 33.7483C18.3705 33.7483 18.7307 33.6272 19.026 33.4035L19.0305 33.399L19.0373 33.3923L19.0642 33.372C19.2091 33.2602 19.3516 33.1454 19.4918 33.0278C21.1693 31.6136 22.7105 30.0452 24.0952 28.3433C26.5725 25.2787 29.25 20.8237 29.25 15.75C29.25 12.7663 28.0647 9.90483 25.955 7.79505C23.8452 5.68526 20.9837 4.5 18 4.5C15.0163 4.5 12.1548 5.68526 10.045 7.79505C7.93526 9.90483 6.75 12.7663 6.75 15.75C6.75 20.8237 9.4275 25.2787 11.907 28.3433C13.2917 30.0452 14.833 31.6136 16.5105 33.0278L16.9358 33.372L16.9628 33.3923ZM18 19.125C18.4432 19.125 18.8821 19.0377 19.2916 18.8681C19.701 18.6985 20.0731 18.4499 20.3865 18.1365C20.6999 17.8231 20.9485 17.451 21.1181 17.0416C21.2877 16.6321 21.375 16.1932 21.375 15.75C21.375 15.3068 21.2877 14.8679 21.1181 14.4584C20.9485 14.049 20.6999 13.6769 20.3865 13.3635C20.0731 13.0501 19.701 12.8015 19.2916 12.6319C18.8821 12.4623 18.4432 12.375 18 12.375C17.1049 12.375 16.2464 12.7306 15.6135 13.3635C14.9806 13.9964 14.625 14.8549 14.625 15.75C14.625 16.6451 14.9806 17.5036 15.6135 18.1365C16.2464 18.7694 17.1049 19.125 18 19.125Z" fill="#69C6D3"/>
</svg>
