<svg width="50" height="75" viewBox="0 0 50 75" fill="none" xmlns="http://www.w3.org/2000/svg">
<g clip-path="url(#clip0_555_725)">
<g filter="url(#filter0_d_555_725)">
<path fill-rule="evenodd" clip-rule="evenodd" d="M22.695 64.205L22.71 64.22L22.72 64.23C23.3761 64.7272 24.1768 64.9963 25 64.9963C25.8232 64.9963 26.6239 64.7272 27.28 64.23L27.29 64.22L27.305 64.205L27.365 64.16C27.6868 63.9115 28.0036 63.6564 28.315 63.395C32.0429 60.2524 35.4679 56.7671 38.545 52.985C44.05 46.175 50 36.275 50 25C50 18.3696 47.3661 12.0107 42.6777 7.32233C37.9893 2.63392 31.6304 0 25 0C18.3696 0 12.0107 2.63392 7.32233 7.32233C2.63392 12.0107 0 18.3696 0 25C0 36.275 5.95 46.175 11.46 52.985C14.5371 56.7671 17.9621 60.2524 21.69 63.395L22.635 64.16L22.695 64.205ZM25 32.5C25.9849 32.5 26.9602 32.306 27.8701 31.9291C28.7801 31.5522 29.6069 30.9997 30.3033 30.3033C30.9997 29.6069 31.5522 28.7801 31.9291 27.8701C32.306 26.9602 32.5 25.9849 32.5 25C32.5 24.0151 32.306 23.0398 31.9291 22.1299C31.5522 21.2199 30.9997 20.3931 30.3033 19.6967C29.6069 19.0003 28.7801 18.4478 27.8701 18.0709C26.9602 17.694 25.9849 17.5 25 17.5C23.0109 17.5 21.1032 18.2902 19.6967 19.6967C18.2902 21.1032 17.5 23.0109 17.5 25C17.5 26.9891 18.2902 28.8968 19.6967 30.3033C21.1032 31.7098 23.0109 32.5 25 32.5Z" fill="#FF3B30"/>
<path d="M25 1.5C31.2326 1.5 37.2101 3.97571 41.6172 8.38281C46.0243 12.7899 48.5 18.7674 48.5 25C48.5 35.7621 42.8065 45.3265 37.3818 52.0381C34.3645 55.7467 31.0058 59.1644 27.3506 62.2461C27.0601 62.4899 26.7648 62.7279 26.4648 62.96L26.4053 63.0049L26.3193 63.0693L26.3086 63.0791C25.9257 63.3488 25.4697 63.4961 25 63.4961L24.8145 63.4883C24.4104 63.4552 24.0229 63.3134 23.6904 63.0791L23.6807 63.0693L23.5596 62.9785L22.6562 62.248H22.6572C19.2296 59.3585 16.0625 56.1737 13.1934 52.7305L12.624 52.0381C7.19455 45.3268 1.5 35.7625 1.5 25C1.5 18.7674 3.97571 12.7899 8.38281 8.38281C12.7899 3.97571 18.7674 1.5 25 1.5ZM25 16C22.6131 16 20.3236 16.9479 18.6357 18.6357C16.9479 20.3236 16 22.6131 16 25C16 27.3869 16.9479 29.6764 18.6357 31.3643C20.2181 32.9466 22.3292 33.8789 24.5537 33.9893L25 34C26.1819 34 27.3524 33.7667 28.4443 33.3145C29.5361 32.8622 30.5286 32.1999 31.3643 31.3643C32.1999 30.5286 32.8622 29.5361 33.3145 28.4443C33.7667 27.3524 34 26.1819 34 25L33.9893 24.5576C33.9385 23.5268 33.7102 22.5112 33.3145 21.5557C32.8622 20.4639 32.1999 19.4714 31.3643 18.6357C30.5286 17.8001 29.5361 17.1378 28.4443 16.6855C27.4888 16.2898 26.4732 16.0615 25.4424 16.0107L25 16Z" stroke="white" stroke-width="3"/>
</g>
</g>
<defs>
<filter id="filter0_d_555_725" x="-2" y="-1" width="54" height="68.9963" filterUnits="userSpaceOnUse" color-interpolation-filters="sRGB">
<feFlood flood-opacity="0" result="BackgroundImageFix"/>
<feColorMatrix in="SourceAlpha" type="matrix" values="0 0 0 0 0 0 0 0 0 0 0 0 0 0 0 0 0 0 127 0" result="hardAlpha"/>
<feOffset dy="1"/>
<feGaussianBlur stdDeviation="1"/>
<feComposite in2="hardAlpha" operator="out"/>
<feColorMatrix type="matrix" values="0 0 0 0 0.556863 0 0 0 0 0.556863 0 0 0 0 0.576471 0 0 0 1 0"/>
<feBlend mode="normal" in2="BackgroundImageFix" result="effect1_dropShadow_555_725"/>
<feBlend mode="normal" in="SourceGraphic" in2="effect1_dropShadow_555_725" result="shape"/>
</filter>
<clipPath id="clip0_555_725">
<rect width="50" height="75" fill="white"/>
</clipPath>
</defs>
</svg>
