<svg width="80" height="80" viewBox="0 0 80 80" fill="none" xmlns="http://www.w3.org/2000/svg">
<ellipse cx="40" cy="72" rx="6" ry="2" fill="#3C3C43" fill-opacity="0.6"/>
<g filter="url(#filter0_d_347_930)">
<path fill-rule="evenodd" clip-rule="evenodd" d="M37.695 71.205L37.71 71.22L37.72 71.23C38.3761 71.7272 39.1768 71.9963 40 71.9963C40.8232 71.9963 41.6239 71.7272 42.28 71.23L42.29 71.22L42.305 71.205L42.365 71.16C42.6868 70.9115 43.0036 70.6564 43.315 70.395C47.0429 67.2524 50.4679 63.7671 53.545 59.985C59.05 53.175 65 43.275 65 32C65 25.3696 62.3661 19.0107 57.6777 14.3223C52.9893 9.63392 46.6304 7 40 7C33.3696 7 27.0107 9.63392 22.3223 14.3223C17.6339 19.0107 15 25.3696 15 32C15 43.275 20.95 53.175 26.46 59.985C29.5371 63.7671 32.9621 67.2524 36.69 70.395L37.635 71.16L37.695 71.205ZM40 39.5C40.9849 39.5 41.9602 39.306 42.8701 38.9291C43.7801 38.5522 44.6069 37.9997 45.3033 37.3033C45.9997 36.6069 46.5522 35.7801 46.9291 34.8701C47.306 33.9602 47.5 32.9849 47.5 32C47.5 31.0151 47.306 30.0398 46.9291 29.1299C46.5522 28.2199 45.9997 27.3931 45.3033 26.6967C44.6069 26.0003 43.7801 25.4478 42.8701 25.0709C41.9602 24.694 40.9849 24.5 40 24.5C38.0109 24.5 36.1032 25.2902 34.6967 26.6967C33.2902 28.1032 32.5 30.0109 32.5 32C32.5 33.9891 33.2902 35.8968 34.6967 37.3033C36.1032 38.7098 38.0109 39.5 40 39.5Z" fill="#FF3B30"/>
<path d="M40 8.5C46.2326 8.5 52.2101 10.9757 56.6172 15.3828C61.0243 19.7899 63.5 25.7674 63.5 32C63.5 42.7621 57.8065 52.3265 52.3818 59.0381C49.3645 62.7467 46.0058 66.1644 42.3506 69.2461C42.0601 69.4899 41.7648 69.7279 41.4648 69.96L41.4053 70.0049L41.3193 70.0693L41.3086 70.0791C40.9257 70.3488 40.4697 70.4961 40 70.4961L39.8145 70.4883C39.4104 70.4552 39.0229 70.3134 38.6904 70.0791L38.6807 70.0693L38.5596 69.9785L37.6562 69.248H37.6572C34.2296 66.3585 31.0625 63.1737 28.1934 59.7305L27.624 59.0381C22.1945 52.3268 16.5 42.7625 16.5 32C16.5 25.7674 18.9757 19.7899 23.3828 15.3828C27.7899 10.9757 33.7674 8.5 40 8.5ZM40 23C37.6131 23 35.3236 23.9479 33.6357 25.6357C31.9479 27.3236 31 29.6131 31 32C31 34.3869 31.9479 36.6764 33.6357 38.3643C35.2181 39.9466 37.3292 40.8789 39.5537 40.9893L40 41C41.1819 41 42.3524 40.7667 43.4443 40.3145C44.5361 39.8622 45.5286 39.1999 46.3643 38.3643C47.1999 37.5286 47.8622 36.5361 48.3145 35.4443C48.7667 34.3524 49 33.1819 49 32L48.9893 31.5576C48.9385 30.5268 48.7102 29.5112 48.3145 28.5557C47.8622 27.4639 47.1999 26.4714 46.3643 25.6357C45.5286 24.8001 44.5361 24.1378 43.4443 23.6855C42.4888 23.2898 41.4732 23.0615 40.4424 23.0107L40 23Z" stroke="white" stroke-width="3"/>
</g>
<defs>
<filter id="filter0_d_347_930" x="13" y="6" width="54" height="68.9963" filterUnits="userSpaceOnUse" color-interpolation-filters="sRGB">
<feFlood flood-opacity="0" result="BackgroundImageFix"/>
<feColorMatrix in="SourceAlpha" type="matrix" values="0 0 0 0 0 0 0 0 0 0 0 0 0 0 0 0 0 0 127 0" result="hardAlpha"/>
<feOffset dy="1"/>
<feGaussianBlur stdDeviation="1"/>
<feComposite in2="hardAlpha" operator="out"/>
<feColorMatrix type="matrix" values="0 0 0 0 0.556863 0 0 0 0 0.556863 0 0 0 0 0.576471 0 0 0 1 0"/>
<feBlend mode="normal" in2="BackgroundImageFix" result="effect1_dropShadow_347_930"/>
<feBlend mode="normal" in="SourceGraphic" in2="effect1_dropShadow_347_930" result="shape"/>
</filter>
</defs>
</svg>
